Coordinates
version=1
nRows=14
nColumns=24
inDegrees=yes

Units are S.I. units (second, meters, Newtons, ...)
Angles are in degrees.

endheader
time	pelvis_tilt	pelvis_list	pelvis_rotation	pelvis_tx	pelvis_ty	pelvis_tz	hip_flexion_r	hip_adduction_r	hip_rotation_r	knee_angle_r	ankle_angle_r	subtalar_angle_r	mtp_angle_r	hip_flexion_l	hip_adduction_l	hip_rotation_l	knee_angle_l	ankle_angle_l	subtalar_angle_l	mtp_angle_l	lumbar_extension	lumbar_bending	lumbar_rotation
      3.33500000	    -11.25440067	     -2.45782630	     -4.57483334	     -1.37546417	     -0.01511598	     -0.21361262	      4.36599619	      5.66539681	      1.00843978	     -7.34326530	      5.43445614	     -9.03665470	      7.83099991	     37.34444710	     -6.41173593	     -7.90112842	    -48.50127991	     -5.57304543	     -8.70744534	     21.33744326	      6.20480702	      3.26276441	      2.79409095
      3.34000000	    -11.28049753	     -2.35105388	     -4.70934048	     -1.36829783	     -0.01585941	     -0.21347338	      3.74353515	      5.52974484	      0.99356302	     -6.97128176	      5.66653821	     -8.85348540	      7.83468837	     37.69809429	     -6.36862731	     -7.99127893	    -47.06433810	     -5.43035045	     -8.39046068	     21.25698134	      6.18547922	      3.14175741	      2.98970359
      3.34500000	    -11.27963033	     -2.24158744	     -4.85582078	     -1.36116583	     -0.01662412	     -0.21333842	      3.11309559	      5.38981510	      0.92517244	     -6.62965034	      5.91105537	     -8.64813983	      7.84351258	     37.98962874	     -6.33770386	     -8.10669059	    -45.57704671	     -5.29092190	     -8.03477584	     21.11945880	      6.12837939	      3.01839717	      3.24682900
      3.35000000	    -11.39107293	     -2.15089094	     -4.96844641	     -1.35403076	     -0.01757821	     -0.21326348	      2.61089751	      5.27750582	      0.89476857	     -6.30449967	      6.10226115	     -8.55024655	      7.85812173	     38.39205352	     -6.31242624	     -8.16568249	    -44.05630533	     -5.19998251	     -7.65335838	     21.04413142	      6.19499949	      2.92311289	      3.40793002
      3.35500000	    -11.39528794	     -2.03302031	     -5.14476892	     -1.34689552	     -0.01846295	     -0.21310501	      2.00828919	      5.12680194	      0.86095248	     -6.00803344	      6.38102573	     -8.31264973	      7.90176340	     38.61532172	     -6.31328496	     -8.33947244	    -42.47450425	     -5.03855812	     -7.21809113	     20.89728789	      6.14501194	      2.79673683	      3.68930344
      3.36000000	    -11.39745984	     -1.91411408	     -5.31228051	     -1.33983297	     -0.01935304	     -0.21298781	      1.44128751	      4.97505718	      0.72963218	     -5.76558386	      6.63193831	     -8.06691513	      7.94169219	     38.80336541	     -6.29866056	     -8.47937489	    -40.83620822	     -4.92120446	     -6.80444403	     20.61966240	      6.07711620	      2.66471449	      3.97174837
      3.36500000	    -11.45527661	     -1.80282239	     -5.46779516	     -1.33275717	     -0.02036492	     -0.21287385	      0.93879987	      4.83816387	      0.59821833	     -5.53410726	      6.87869550	     -7.84721811	      7.98446737	     39.03098621	     -6.29948847	     -8.62277147	    -39.17868662	     -4.82326904	     -6.37187334	     20.30534828	      6.07276759	      2.54137454	      4.21925231
      3.37000000	    -11.47713723	     -1.68398222	     -5.55929617	     -1.32565992	     -0.02136682	     -0.21286915	      0.40526301	      4.68419222	      0.28748477	     -5.31317495	      7.15156570	     -7.52970956	      8.04083676	     39.19844687	     -6.24539628	     -8.73620405	    -37.50474661	     -4.69398516	     -5.94467527	     19.46220605	      6.03079542	      2.39985293	      4.38974440
      3.37500000	    -11.62549116	     -1.59778530	     -5.74963992	     -1.31864427	     -0.02254845	     -0.21268296	      0.02747309	      4.59467422	      0.20864315	     -5.12672856	      7.34590582	     -7.39795048	      8.07825285	     39.47468799	     -6.32204490	     -8.91356101	    -35.81731330	     -4.66534154	     -5.50048988	     19.25246617	      6.11067259	      2.30954390	      4.67961229
      3.38000000	    -11.65473393	     -1.47747073	     -5.93852334	     -1.31166690	     -0.02358974	     -0.21255697	     -0.43884879	      4.45219531	     -0.06355402	     -4.99698255	      7.60672863	     -7.10285822	      8.14400946	     39.57173863	     -6.34661643	     -9.12327228	    -34.08014409	     -4.64603889	     -5.16146524	     18.80928424	      6.05082390	      2.17900544	      4.99735521
      3.38500000	    -11.72709276	     -1.36371417	     -6.09030715	     -1.30462444	     -0.02470995	     -0.21245425	     -0.86756358	      4.32189944	     -0.37980876	     -4.85773442	      7.85399396	     -6.79868039	      8.21345007	     39.70294227	     -6.36161116	     -9.30739454	    -32.35953318	     -4.65368960	     -4.85578921	     18.27811001	      6.04955232	      2.04696483	      5.24987490
      3.39000000	    -11.78769024	     -1.25465734	     -6.23769930	     -1.29761667	     -0.02582017	     -0.21236397	     -1.28858774	      4.19757520	     -0.75882331	     -4.74944906	      8.08746751	     -6.47557094	      8.29317516	     39.80698426	     -6.37900206	     -9.49069256	    -30.65972369	     -4.68958196	     -4.59234275	     17.61161715	      6.02389821	      1.91750833	      5.50816831
      3.39500000	    -11.94616577	     -1.17022564	     -6.34423449	     -1.29056025	     -0.02707799	     -0.21226769	     -1.61246466	      4.12322576	     -1.06896639	     -4.63468919	      8.21253573	     -6.39467330	      8.31976276	     40.02111763	     -6.41655262	     -9.64428646	    -29.00332946	     -4.78959852	     -4.33550730	     17.24897210	      6.10972849	      1.81113263	      5.67018894
      3.40000000	    -11.88979569	     -1.06761308	     -6.42780870	     -1.28347158	     -0.02808191	     -0.21230663	     -2.14190763	      3.98247729	     -1.75840969	     -4.56306792	      8.50842488	     -5.77085035	      8.49980322	     39.98318812	     -6.38124740	     -9.78388480	    -27.41791896	     -4.68529498	     -4.10148774	     15.79426211	      5.96403766	      1.66273332	      5.87200157
